<svg width="118" height="24" viewBox="0 0 118 24" fill="none" xmlns="http://www.w3.org/2000/svg">
<path d="M37.83 19.2047C37.2352 19.2369 36.6469 19.0678 36.16 18.7247C35.747 18.4185 35.5113 17.9285 35.53 17.4147V8.1447C35.5202 8.06517 35.5475 7.98554 35.6042 7.92888C35.6608 7.87221 35.7405 7.84484 35.82 7.8547H37.5C37.69 7.8547 37.78 7.9547 37.78 8.1447V16.6947C37.78 17.0747 37.95 17.2647 38.3 17.2647C38.4484 17.2708 38.5968 17.254 38.74 17.2147C38.94 17.2147 39.05 17.2747 39.06 17.4547L39.21 18.7047C39.2246 18.7784 39.2065 18.8549 39.1605 18.9143C39.1145 18.9737 39.045 19.0103 38.97 19.0147C38.602 19.1362 38.2175 19.2003 37.83 19.2047Z" fill="#696871"/>
<path fill-rule="evenodd" clip-rule="evenodd" d="M41.28 18.1347C43.0213 19.5734 45.5387 19.5734 47.28 18.1347V18.1247C48.7861 16.5541 48.7861 14.0754 47.28 12.5047C45.5359 11.0739 43.0241 11.0739 41.28 12.5047C39.7357 14.0637 39.7357 16.5758 41.28 18.1347ZM45.72 16.8147C44.9084 17.5499 43.6716 17.5499 42.86 16.8147C42.1269 15.9718 42.1269 14.7176 42.86 13.8747C43.6716 13.1396 44.9084 13.1396 45.72 13.8747C46.4531 14.7176 46.4531 15.9718 45.72 16.8147Z" fill="#696871"/>
<path fill-rule="evenodd" clip-rule="evenodd" d="M57.94 11.9747C57.94 11.7847 57.85 11.6847 57.66 11.6847L56 11.6947C55.9221 11.6881 55.8454 11.717 55.7911 11.7732C55.7368 11.8294 55.7107 11.9071 55.72 11.9847V12.1447C55.1098 11.6779 54.358 11.4344 53.59 11.4547C52.5364 11.4171 51.5124 11.8066 50.75 12.5347C49.2514 14.0851 49.2514 16.5443 50.75 18.0947C51.5088 18.8295 52.5344 19.2231 53.59 19.1847C54.3364 19.2059 55.0685 18.9771 55.67 18.5347V19.1647C55.6904 19.628 55.5206 20.0796 55.2 20.4147C54.8491 20.7349 54.3843 20.9007 53.91 20.8747C53.5209 20.8825 53.1359 20.7932 52.79 20.6147C52.5062 20.4612 52.289 20.2084 52.18 19.9047C52.1249 19.7697 51.9957 19.6797 51.85 19.6747H50.17C49.9 19.6747 49.9 19.7647 49.9 19.9647C50.0407 20.7841 50.5151 21.5083 51.21 21.9647C52.0151 22.4866 52.9611 22.7484 53.92 22.7147C54.9816 22.7615 56.0214 22.4041 56.83 21.7147C57.5677 21.0686 57.9754 20.1247 57.94 19.1447V11.9747ZM55.15 16.8147C54.8034 17.2047 54.3015 17.4208 53.78 17.4047C53.2528 17.4199 52.7453 17.2045 52.39 16.8147C52.0313 16.4029 51.842 15.8705 51.86 15.3247C51.838 14.7735 52.0317 14.2354 52.4 13.8247C52.7545 13.4338 53.2626 13.2181 53.79 13.2347C54.3068 13.2176 54.8046 13.43 55.15 13.8147C55.8338 14.6978 55.8338 15.9316 55.15 16.8147Z" fill="#696871"/>
<path fill-rule="evenodd" clip-rule="evenodd" d="M60.57 18.1347C62.3141 19.5656 64.8259 19.5656 66.57 18.1347V18.1247C68.0761 16.5541 68.0761 14.0754 66.57 12.5047C64.8245 11.0778 62.3155 11.0778 60.57 12.5047C59.0627 14.0787 59.0627 16.5608 60.57 18.1347ZM63.58 17.3647C63.0458 17.3812 62.5272 17.1831 62.14 16.8147C61.4196 15.9671 61.4196 14.7224 62.14 13.8747C62.5272 13.5064 63.0458 13.3083 63.58 13.3247C64.1108 13.311 64.6252 13.5089 65.01 13.8747C65.7303 14.7224 65.7303 15.9671 65.01 16.8147C64.6252 17.1806 64.1108 17.3785 63.58 17.3647Z" fill="#696871"/>
<path fill-rule="evenodd" clip-rule="evenodd" d="M69.4 9.98471C69.9467 10.4633 70.7633 10.4633 71.31 9.98471C71.5522 9.75612 71.6895 9.43778 71.6895 9.10471C71.6895 8.77165 71.5522 8.45331 71.31 8.22471C70.7585 7.75892 69.9515 7.75892 69.4 8.22471C69.1578 8.45331 69.0205 8.77165 69.0205 9.10471C69.0205 9.43778 69.1578 9.75612 69.4 9.98471ZM69.85 18.7247C70.3382 19.065 70.9256 19.2339 71.52 19.2047C71.9108 19.2011 72.2988 19.137 72.67 19.0147C72.745 19.0104 72.8145 18.9737 72.8605 18.9143C72.9065 18.8549 72.9246 18.7784 72.91 18.7047L72.76 17.4547C72.75 17.2747 72.64 17.2147 72.44 17.2147C72.2933 17.2533 72.1416 17.2702 71.99 17.2647C71.65 17.2647 71.48 17.0747 71.48 16.6947V11.9747C71.48 11.7847 71.39 11.6847 71.2 11.6847H69.52C69.4405 11.6749 69.3608 11.7022 69.3042 11.7589C69.2475 11.8156 69.2201 11.8952 69.23 11.9747V17.4147C69.2124 17.926 69.4434 18.4142 69.85 18.7247Z" fill="#696871"/>
<path fill-rule="evenodd" clip-rule="evenodd" d="M81.95 12.5247C81.1821 11.7925 80.1502 11.4028 79.09 11.4447C78.1642 11.4246 77.271 11.7862 76.62 12.4447C76.2767 11.7739 75.5607 11.3783 74.81 11.4447C74.442 11.438 74.0759 11.499 73.73 11.6247C73.5851 11.6668 73.4893 11.8043 73.5 11.9547V13.1347C73.5 13.2947 73.61 13.3747 73.83 13.3747H74.16C74.3226 13.3509 74.487 13.4053 74.6032 13.5215C74.7194 13.6378 74.7739 13.8021 74.75 13.9647V22.1647C74.7354 22.2426 74.7602 22.3225 74.8162 22.3785C74.8722 22.4345 74.9522 22.4593 75.03 22.4447H76.71C76.9 22.4447 77 22.3547 77 22.1647V18.5547C77.6073 18.9932 78.3411 19.2214 79.09 19.2047C80.1522 19.2475 81.1856 18.8536 81.95 18.1147C83.4171 16.5402 83.4171 14.0993 81.95 12.5247ZM78.91 17.4042C78.3888 17.4042 77.8903 17.1913 77.53 16.8147C77.1687 16.3887 76.9797 15.843 77 15.2847C76.9767 14.7261 77.1661 14.1793 77.53 13.7547C77.8903 13.3782 78.3888 13.1652 78.91 13.1652C79.4312 13.1652 79.9297 13.3782 80.29 13.7547C80.6684 14.172 80.8662 14.7221 80.84 15.2847C80.8629 15.8469 80.6656 16.3958 80.29 16.8147C79.9297 17.1913 79.4312 17.4042 78.91 17.4042Z" fill="#696871"/>
<path d="M87.77 19.2047C86.8723 19.2416 85.9821 19.0269 85.2 18.5847C84.5643 18.2018 84.1374 17.5504 84.04 16.8147C84.04 16.6147 84.11 16.5147 84.33 16.5147H85.8C85.9426 16.5203 86.07 16.6052 86.13 16.7347C86.34 17.2747 86.89 17.5447 87.77 17.5447C88.0769 17.5587 88.3826 17.4969 88.66 17.3647C88.8551 17.2766 88.9858 17.0883 89 16.8747C89 16.6147 88.84 16.4347 88.52 16.3147C88.1404 16.1884 87.748 16.1045 87.35 16.0647C86.8785 16.0113 86.4108 15.9278 85.95 15.8147C85.5018 15.7133 85.0943 15.4799 84.78 15.1447C84.4058 14.6842 84.2397 14.089 84.3212 13.5012C84.4027 12.9135 84.7246 12.386 85.21 12.0447C85.9308 11.5856 86.7765 11.3619 87.63 11.4047C88.4564 11.3768 89.274 11.5812 89.99 11.9947C90.5744 12.3257 90.9785 12.9024 91.09 13.5647C91.09 13.7647 91 13.8647 90.82 13.8647H89.34C89.2125 13.8723 89.0933 13.8008 89.04 13.6847C88.9411 13.4479 88.7549 13.2581 88.52 13.1547C88.255 13.0161 87.959 12.9472 87.66 12.9547C87.3669 12.9388 87.0744 12.9972 86.81 13.1247C86.6194 13.1983 86.4926 13.3804 86.49 13.5847C86.5031 13.8654 86.6978 14.1048 86.97 14.1747C87.354 14.3194 87.7532 14.4201 88.16 14.4747C88.6277 14.5363 89.0917 14.623 89.55 14.7347C89.9982 14.8362 90.4057 15.0695 90.72 15.4047C91.0596 15.7777 91.236 16.271 91.21 16.7747C91.2275 17.4779 90.8744 18.1386 90.28 18.5147C89.5328 18.9943 88.6573 19.235 87.77 19.2047Z" fill="#696871"/>
<path d="M101.78 18.7047C101.791 18.7764 101.773 18.8497 101.73 18.9081C101.687 18.9664 101.622 19.0048 101.55 19.0147C101.185 19.1339 100.804 19.1979 100.42 19.2047C99.647 19.2847 98.8884 18.9548 98.42 18.3347C97.7136 18.942 96.8003 19.2536 95.87 19.2047C94.9966 19.2449 94.1468 18.9145 93.53 18.2947C92.918 17.6458 92.5966 16.7756 92.64 15.8847V11.9747C92.64 11.7847 92.73 11.6847 92.92 11.6847H94.6C94.79 11.6847 94.88 11.7847 94.88 11.9747V15.5847C94.8617 16.0345 95.0155 16.4743 95.31 16.8147C95.6074 17.1302 96.0267 17.3016 96.46 17.2847C96.9027 17.3041 97.3348 17.1456 97.66 16.8447C97.968 16.5273 98.1309 16.0965 98.11 15.6547V11.9747C98.11 11.7847 98.2 11.6847 98.39 11.6847H100.09C100.28 11.6847 100.37 11.7847 100.37 11.9747V16.6847C100.37 17.0747 100.54 17.2647 100.87 17.2647C101.025 17.2707 101.18 17.2538 101.33 17.2147C101.407 17.1932 101.489 17.208 101.553 17.2548C101.617 17.3015 101.657 17.3752 101.66 17.4547L101.78 18.7047Z" fill="#696871"/>
<path d="M117.67 18.7047C117.688 18.7772 117.673 18.854 117.628 18.914C117.584 18.974 117.515 19.0109 117.44 19.0147C117.068 19.1356 116.681 19.1996 116.29 19.2047C115.695 19.2354 115.108 19.0664 114.62 18.7247C114.192 18.4274 113.94 17.9359 113.95 17.4147V15.0647C113.971 14.6163 113.821 14.1766 113.53 13.8347C113.246 13.5182 112.835 13.3457 112.41 13.3647C112.027 13.3502 111.658 13.5124 111.41 13.8047C111.146 14.1398 111.011 14.5585 111.03 14.9847V18.6747C111.03 18.8647 110.94 18.9647 110.75 18.9647H109.06C108.98 18.9746 108.901 18.9472 108.844 18.8905C108.788 18.8339 108.76 18.7542 108.77 18.6747V15.0647C108.792 14.6212 108.653 14.1846 108.38 13.8347C108.133 13.5371 107.767 13.3649 107.38 13.3647C106.967 13.3481 106.567 13.5081 106.28 13.8047C105.994 14.1291 105.847 14.5528 105.87 14.9847V18.6747C105.88 18.7542 105.852 18.8339 105.796 18.8905C105.739 18.9472 105.66 18.9746 105.58 18.9647H103.95C103.76 18.9647 103.67 18.8647 103.67 18.6747V13.9647C103.694 13.8021 103.639 13.6377 103.523 13.5215C103.407 13.4053 103.243 13.3508 103.08 13.3747H102.75C102.53 13.3747 102.42 13.2947 102.42 13.1347V11.9547C102.409 11.8042 102.505 11.6668 102.65 11.6247C102.996 11.499 103.362 11.438 103.73 11.4447C104.451 11.3833 105.143 11.7411 105.51 12.3647C106.192 11.7183 107.112 11.385 108.05 11.4447C108.964 11.4001 109.844 11.7938 110.42 12.5047C111.09 11.7763 112.052 11.3873 113.04 11.4447C113.922 11.4034 114.782 11.7334 115.41 12.3547C116.024 13.0024 116.346 13.8734 116.3 14.7647V16.6947C116.3 17.0747 116.47 17.2647 116.79 17.2647C116.945 17.2719 117.1 17.2551 117.25 17.2147C117.457 17.2147 117.567 17.2947 117.58 17.4547L117.67 18.7047Z" fill="#696871"/>
<path fill-rule="evenodd" clip-rule="evenodd" d="M0.41 10.3847C1.92808 4.28306 7.40732 0 13.695 0C19.9827 0 25.4619 4.28306 26.98 10.3847H25.78C23.7557 10.3549 21.7729 10.9599 20.11 12.1147C20.014 12.1842 19.9138 12.2477 19.81 12.3047H19.67C19.5662 12.2477 19.466 12.1842 19.37 12.1147C15.9385 9.80724 11.4515 9.80724 8.02 12.1147C7.92403 12.1842 7.82384 12.2477 7.72 12.3047H7.58C7.47616 12.2477 7.37597 12.1842 7.28 12.1147C5.61713 10.9599 3.63432 10.3549 1.61 10.3847H0.41ZM23.62 16.6547C24.236 16.175 24.9995 15.924 25.78 15.9447H27.39V12.7347H25.78C24.4052 12.7181 23.0619 13.146 21.95 13.9547C20.6657 14.9016 18.9143 14.9016 17.63 13.9547C15.295 12.3293 12.195 12.3293 9.86 13.9547C8.57565 14.9016 6.82435 14.9016 5.54 13.9547C4.4144 13.1357 3.0518 12.7072 1.66 12.7347H0V15.9447H1.61C2.39051 15.924 3.15399 16.175 3.77 16.6547C6.10094 18.2813 9.19906 18.2813 11.53 16.6547C12.1468 16.1765 12.9097 15.9257 13.69 15.9447C14.4708 15.9223 15.2348 16.1735 15.85 16.6547C18.185 18.2801 21.285 18.2801 23.62 16.6547ZM25.78 21.6847C24.9995 21.664 24.236 21.915 23.62 22.3947C21.285 24.0201 18.185 24.0201 15.85 22.3947C15.2348 21.9135 14.4708 21.6623 13.69 21.6847C12.9097 21.6657 12.1468 21.9165 11.53 22.3947C9.19906 24.0213 6.10094 24.0213 3.77 22.3947C3.15399 21.915 2.39051 21.664 1.61 21.6847H0V18.4747H1.66C3.0518 18.4472 4.4144 18.8757 5.54 19.6947C6.82435 20.6416 8.57565 20.6416 9.86 19.6947C12.195 18.0693 15.295 18.0693 17.63 19.6947C18.9143 20.6416 20.6657 20.6416 21.95 19.6947C23.0619 18.886 24.4052 18.4581 25.78 18.4747H27.39V21.6847H25.78Z" fill="#696871"/>
</svg>
