<svg width="127" height="30" viewBox="0 0 127 30" fill="none" xmlns="http://www.w3.org/2000/svg">
<path fill-rule="evenodd" clip-rule="evenodd" d="M75.1924 8.28671C74.5824 8.56275 74.2014 9.1819 74.23 9.85085L74.25 9.86085C74.2552 10.2834 74.4295 10.6863 74.7339 10.9795C75.0383 11.2726 75.4475 11.4316 75.87 11.4208C76.5395 11.4202 77.1415 11.0127 77.3907 10.3912C77.6399 9.76974 77.4863 9.0592 77.0026 8.59619C76.5189 8.13317 75.8024 8.01067 75.1924 8.28671ZM39.2 9.03085H35.99V22.0308H39.2V9.03085ZM45.48 11.9908C42.48 11.9908 40.48 13.9208 40.48 17.1408C40.48 20.4308 42.41 22.3108 45.48 22.3108C48.55 22.3108 50.48 20.3608 50.48 17.1408C50.48 13.9208 48.48 11.9908 45.48 11.9908ZM47.3 17.1408C47.3 15.3708 46.61 14.3308 45.51 14.3308C44.41 14.3308 43.73 15.3308 43.73 17.1408C43.73 18.9508 44.41 19.9408 45.51 19.9408C46.61 19.9408 47.32 18.9508 47.32 17.1508L47.3 17.1408ZM54.86 22.7008H51.76L51.78 22.7108C51.96 24.5008 53.74 25.7708 56.52 25.7808C59.58 25.7808 61.66 24.3108 61.66 21.9608V12.2208H58.48V13.8336C57.937 12.7466 56.7969 12.0752 55.57 12.1408C53.06 12.1408 51.57 14.0608 51.57 17.1408C51.57 20.2208 53.13 22.0108 55.48 22.0108C56.7378 22.103 57.9232 21.4166 58.47 20.2818V22.0608C58.47 23.0408 57.83 23.7008 56.6 23.7008C55.8613 23.7955 55.15 23.3867 54.86 22.7008ZM58.48 17.1408C58.48 15.5708 57.76 14.5808 56.62 14.5808C55.48 14.5808 54.78 15.5808 54.78 17.1408C54.78 18.7008 55.47 19.6208 56.62 19.6208C57.77 19.6208 58.48 18.7708 58.48 17.1408ZM67.93 11.9908C64.93 11.9908 62.93 13.9208 62.93 17.1408H62.95C62.95 20.4308 64.87 22.3108 67.93 22.3108C70.99 22.3108 72.93 20.3608 72.93 17.1408C72.93 13.9208 70.93 11.9908 67.93 11.9908ZM69.75 17.1408C69.75 15.3708 69.05 14.3308 67.96 14.3308C66.87 14.3308 66.18 15.3308 66.18 17.1408C66.18 18.9508 66.86 19.9408 67.96 19.9408C69.06 19.9408 69.77 18.9508 69.77 17.1508L69.75 17.1408ZM74.23 12.2108H77.48V22.0708H74.28L74.23 12.2108ZM85.28 22.2108C87.73 22.2108 89.17 20.3508 89.17 17.1408L89.23 17.1508C89.23 13.9308 87.78 12.0808 85.26 12.1008C83.9596 12.039 82.7599 12.7988 82.26 14.0008H82.2V12.2408H79.01V25.2408H82.22V20.3808H82.28C82.7975 21.5595 83.9952 22.2901 85.28 22.2108ZM85.9 17.1408C85.9 15.5808 85.17 14.5708 84.04 14.5708C82.91 14.5708 82.2 15.5708 82.19 17.1408C82.18 18.7108 82.91 19.7008 84.04 19.7008C85.17 19.7008 85.96 18.7708 85.96 17.1508L85.9 17.1408ZM99.03 15.2908C99.01 13.2508 97.34 11.9808 94.65 11.9808L94.71 11.9908C92 11.9908 90.32 13.2408 90.26 15.2008C90.26 16.7108 91.27 17.7208 93.2 18.1308L95.06 18.5208C95.83 18.6808 96.13 18.7708 96.13 19.3008C96.13 19.8308 95.69 20.1308 94.75 20.1308C93.81 20.1308 93.23 19.7008 93.14 18.9708H90.03C90.16 20.9808 91.95 22.3008 94.7 22.3008C97.45 22.3008 99.3 20.9408 99.3 18.9408C99.3 17.4508 98.5 16.6508 96.5 16.2308L94.44 15.8108C93.7 15.6608 93.33 15.5008 93.33 14.9908C93.33 14.4808 93.75 14.1408 94.63 14.1408C95.51 14.1408 96.1 14.5808 96.1 15.2908H99.03ZM110.05 22.0608H106.94V20.2108H106.88C106.521 21.4819 105.329 22.3339 104.01 22.2608C103.032 22.2927 102.088 21.9056 101.413 21.197C100.739 20.4884 100.4 19.5257 100.48 18.5508V12.2208H103.69V17.8608C103.69 19.0208 104.3 19.6508 105.3 19.6508C105.775 19.6473 106.225 19.4382 106.533 19.0776C106.842 18.7171 106.979 18.2404 106.91 17.7708V12.2208H110.11L110.05 22.0608ZM114.72 12.2108H111.6L111.62 22.0708H114.83V16.2508C114.778 15.8415 114.905 15.4297 115.179 15.1212C115.453 14.8127 115.847 14.6376 116.26 14.6408C117.14 14.6408 117.63 15.1708 117.63 16.1708V22.0708H120.69V16.2308C120.634 15.8261 120.759 15.4174 121.03 15.1118C121.301 14.8062 121.692 14.6341 122.1 14.6408C123.01 14.6408 123.48 15.2008 123.48 16.2008V22.0708H126.71V15.3808C126.776 14.4948 126.461 13.6226 125.845 12.983C125.228 12.3434 124.368 11.9971 123.48 12.0308C122.122 11.9673 120.891 12.8249 120.48 14.1208H120.34C120.102 12.8217 118.916 11.9165 117.6 12.0308C116.299 12.0043 115.145 12.8591 114.79 14.1108H114.72V12.2108Z" fill="#696871"/>
<path fill-rule="evenodd" clip-rule="evenodd" d="M29.64 9.88087C29.6402 5.80726 27.1402 2.15113 23.3441 0.673391C19.548 -0.804353 15.234 0.199264 12.48 3.20087H0V29.5409H26.35V17.2309C28.4417 15.36 29.6381 12.6872 29.64 9.88087ZM24.57 9.88087C24.574 11.8313 23.4023 13.5919 21.6015 14.3411C19.8007 15.0903 17.7259 14.6804 16.3453 13.3027C14.9647 11.9249 14.5505 9.85099 15.296 8.04865C16.0414 6.24631 17.7996 5.07087 19.75 5.07087C22.4081 5.07086 24.5645 7.22276 24.57 9.88087ZM5.07 24.4709H21.28V19.6409C20.7743 19.7247 20.2626 19.7682 19.75 19.7709C14.2902 19.7654 9.86551 15.3407 9.86 9.88087C9.8644 9.34093 9.91458 8.80233 10.01 8.27087H5.07V24.4709Z" fill="#696871"/>
</svg>
