<svg width="101" height="48" viewBox="0 0 101 48" fill="none" xmlns="http://www.w3.org/2000/svg">
<path d="M0 28.61H3V43.32H0V28.61Z" fill="#696871"/>
<path fill-rule="evenodd" clip-rule="evenodd" d="M8.02953 33.3394C6.03444 34.1691 4.73596 36.1193 4.74 38.28C4.72647 39.6995 5.28505 41.0646 6.28974 42.0674C7.29443 43.0702 8.66058 43.6262 10.08 43.61C12.2407 43.61 14.1885 42.3079 15.0145 40.3112C15.8404 38.3146 15.3817 36.017 13.8524 34.4905C12.3231 32.9641 10.0246 32.5097 8.02953 33.3394ZM10.041 36.0204C11.3142 35.9986 12.3671 37.0071 12.4 38.28C12.4338 38.9105 12.2023 39.5263 11.7616 39.9784C11.3209 40.4305 10.7111 40.6777 10.08 40.66C8.80661 40.6596 7.77155 39.6329 7.76086 38.3595C7.75016 37.0862 8.76783 36.0422 10.041 36.0204Z" fill="#696871"/>
<path fill-rule="evenodd" clip-rule="evenodd" d="M27.48 42.82V33.24L24.53 33.27V34.27C23.8116 33.3939 22.7218 32.9083 21.59 32.96C18.7623 32.96 16.47 35.2523 16.47 38.08C16.47 40.9077 18.7623 43.2 21.59 43.2C22.7227 43.2566 23.8146 42.77 24.53 41.89V42.82C24.5881 43.438 24.3559 44.048 23.9016 44.471C23.4473 44.894 22.8223 45.082 22.21 44.98C21.2706 45.0577 20.3789 44.5544 19.96 43.71L17.38 45.2C18.3885 46.8415 20.2288 47.7829 22.15 47.64C24.83 47.64 27.48 46.21 27.48 42.82ZM23.0951 35.7557C24.0029 36.1651 24.5708 37.085 24.53 38.08C24.5486 38.7238 24.2939 39.3454 23.8291 39.7912C23.3642 40.2371 22.7325 40.4655 22.09 40.42C21.0942 40.4192 20.1988 39.8133 19.8278 38.8892C19.4567 37.9651 19.6845 36.9082 20.4032 36.2189C21.1219 35.5297 22.1873 35.3463 23.0951 35.7557Z" fill="#696871"/>
<path fill-rule="evenodd" clip-rule="evenodd" d="M32.4995 33.3394C30.5044 34.1691 29.206 36.1193 29.21 38.28C29.1965 39.6995 29.755 41.0646 30.7597 42.0674C31.7644 43.0702 33.1306 43.6262 34.55 43.61C36.7107 43.61 38.6585 42.3079 39.4845 40.3112C40.3104 38.3146 39.8517 36.017 38.3224 34.4905C36.7931 32.9641 34.4946 32.5097 32.4995 33.3394ZM34.511 36.0204C35.7842 35.9986 36.8371 37.0071 36.87 38.28H36.85C36.8834 38.9069 36.6546 39.5195 36.2184 39.971C35.7821 40.4224 35.1777 40.672 34.55 40.66C33.2766 40.6596 32.2416 39.6329 32.2309 38.3595C32.2202 37.0862 33.2378 36.0422 34.511 36.0204Z" fill="#696871"/>
<path fill-rule="evenodd" clip-rule="evenodd" d="M43.1 28.72C42.0948 28.72 41.28 29.5348 41.28 30.54C41.2855 31.5429 42.0971 32.3545 43.1 32.36C44.1052 32.36 44.92 31.5451 44.92 30.54C44.92 29.5348 44.1052 28.72 43.1 28.72ZM44.59 33.24H41.59V43.32H44.59V33.24Z" fill="#696871"/>
<path fill-rule="evenodd" clip-rule="evenodd" d="M56.374 41.9458C57.277 40.9452 57.7435 39.6258 57.67 38.28C57.7407 36.9359 57.273 35.619 56.3703 34.6206C55.4677 33.6222 54.2044 33.0246 52.86 32.96C51.7272 32.9056 50.6286 33.356 49.86 34.19V33.24H46.86V47.38H49.86V42.38C50.6286 43.2139 51.7272 43.6644 52.86 43.61C54.2062 43.5454 55.4711 42.9464 56.374 41.9458ZM52.2505 35.9408C53.5602 35.9298 54.6368 36.9707 54.67 38.28H54.65C54.6975 38.9423 54.4565 39.5929 53.9889 40.0643C53.5213 40.5358 52.8727 40.7821 52.21 40.74C50.9007 40.7068 49.8598 39.6301 49.8709 38.3205C49.8819 37.0108 50.9409 35.9519 52.2505 35.9408Z" fill="#696871"/>
<path d="M67.01 40.3C67.01 42.62 65.01 43.61 62.81 43.61C61.012 43.7692 59.2979 42.8191 58.48 41.21L61.1 39.72C61.3192 40.4695 62.0311 40.9649 62.81 40.91C63.54 40.91 63.9 40.68 63.9 40.28C63.9 39.17 58.9 39.76 58.9 36.28C58.9 34.08 60.76 32.97 62.9 32.97C64.5081 32.9211 66.0163 33.748 66.84 35.13L64.21 36.51C63.9726 35.9704 63.4395 35.6215 62.85 35.62C62.33 35.62 62.01 35.82 62.01 36.19C62.05 37.34 67.01 36.57 67.01 40.3Z" fill="#696871"/>
<path d="M78.05 33.24V43.32H75.05V42.38C74.3421 43.2272 73.2715 43.6844 72.17 43.61C70.17 43.61 68.4 42.16 68.4 39.43V33.24H71.4V38.99C71.3466 39.4862 71.5193 39.9802 71.8702 40.335C72.2212 40.6899 72.7132 40.868 73.21 40.82C74.31 40.82 75.08 40.18 75.08 38.75V33.24H78.05Z" fill="#696871"/>
<path d="M95.39 37.14V43.32H92.39V37.4C92.39 36.4 91.9 35.74 90.94 35.74C89.98 35.74 89.36 36.45 89.36 37.64V43.32H86.36V37.4C86.36 36.4 85.88 35.74 84.91 35.74C83.94 35.74 83.34 36.45 83.34 37.64V43.32H80.34V33.24H83.34V34.17C83.977 33.3355 84.9932 32.8801 86.04 32.96C87.0925 32.9089 88.0946 33.4138 88.68 34.29C89.3603 33.3745 90.4628 32.8723 91.6 32.96C93.88 32.96 95.39 34.62 95.39 37.14Z" fill="#696871"/>
<path d="M97.95 33.18C99.1871 33.18 100.19 32.1771 100.19 30.94C100.19 29.7029 99.1871 28.7 97.95 28.7C96.7129 28.7 95.71 29.7029 95.71 30.94C95.71 32.1771 96.7129 33.18 97.95 33.18Z" fill="#696871"/>
<path d="M33.95 20.98C39.7435 20.98 44.44 16.2835 44.44 10.49C44.44 4.69653 39.7435 0 33.95 0C28.1565 0 23.46 4.69653 23.46 10.49C23.46 16.2835 28.1565 20.98 33.95 20.98Z" fill="#696871"/>
<path d="M57.4 20.98C63.1935 20.98 67.89 16.2835 67.89 10.49C67.89 4.69653 63.1935 0 57.4 0C51.6065 0 46.91 4.69653 46.91 10.49C46.91 16.2835 51.6065 20.98 57.4 20.98Z" fill="#696871"/>
<rect x="0.0200005" width="20.97" height="20.97" fill="#696871"/>
</svg>
