<svg width="119" height="28" viewBox="0 0 119 28" fill="none" xmlns="http://www.w3.org/2000/svg">
<path fill-rule="evenodd" clip-rule="evenodd" d="M70.879 6.9532C70.3125 7.20426 69.9533 7.77224 69.9694 8.39169V8.41169C69.9656 8.81861 70.1319 9.20862 70.4281 9.4877C70.7242 9.76677 71.1234 9.90958 71.5294 9.88169C72.1489 9.86933 72.6998 9.4845 72.9246 8.90706C73.1494 8.32961 73.0037 7.67358 72.5556 7.24559C72.1075 6.81759 71.4455 6.70214 70.879 6.9532ZM37.3994 7.64169H34.3994V19.7717H37.3994V7.64169ZM43.2694 10.4017C40.4294 10.4017 38.5894 12.1917 38.5894 15.1917C38.5894 18.2417 40.3894 19.9917 43.2694 19.9917C46.1494 19.9917 47.9494 18.1917 47.9494 15.1917C47.9494 12.1917 46.1094 10.4017 43.2694 10.4017ZM44.9394 15.1917C44.9394 13.5417 44.2894 12.5717 43.2694 12.5717C42.2494 12.5717 41.6094 13.5717 41.6094 15.1917C41.6094 16.8117 42.2394 17.7917 43.2694 17.7917C44.2994 17.7917 44.9394 16.8717 44.9394 15.2017V15.1917ZM51.9594 20.3617H49.0794V20.3717C49.2494 22.0317 50.8994 23.2217 53.5494 23.2217C56.3994 23.2217 58.3294 21.8617 58.3294 19.6717V10.5717H55.3294V12.2417C54.8669 11.1364 53.7666 10.4348 52.5694 10.4817C50.2694 10.4817 48.8894 12.2917 48.8894 15.1617C48.8894 18.0317 50.3394 19.7017 52.5294 19.7017C53.6891 19.7647 54.7703 19.1152 55.2594 18.0617H55.3194V19.7417C55.3194 20.6417 54.7194 21.2617 53.5794 21.2617C52.8997 21.3531 52.2408 20.987 51.9594 20.3617ZM55.3294 15.1817C55.3294 13.7217 54.6594 12.8017 53.5994 12.8017C52.5394 12.8017 51.8894 13.7117 51.8894 15.1817C51.8894 16.6517 52.5294 17.4817 53.5994 17.4817C54.6694 17.4817 55.3294 16.6717 55.3294 15.1917V15.1817ZM64.1394 10.3917C61.2994 10.3917 59.4594 12.1817 59.4594 15.1817V15.1917C59.4594 18.2417 61.2494 19.9817 64.1394 19.9817C67.0294 19.9817 68.8294 18.1817 68.8294 15.1817C68.8294 12.1817 66.9794 10.3917 64.1394 10.3917ZM65.8094 15.1817C65.8094 13.5317 65.1594 12.5617 64.1394 12.5617C63.1194 12.5617 62.5294 13.5717 62.5294 15.2017C62.5294 16.8317 63.1594 17.8017 64.1794 17.8017C65.1994 17.8017 65.8094 16.8717 65.8094 15.2017V15.1817ZM69.9694 10.5917H72.9694V19.7717H69.9694V10.5917ZM80.2494 19.8917C82.5294 19.8917 83.8594 18.1817 83.8594 15.1817L83.8994 15.2017C83.8994 12.2017 82.5294 10.4817 80.2294 10.4417C79.0226 10.3878 77.9112 11.0954 77.4494 12.2117H77.3894V10.5717H74.3894V22.7117H77.3894V18.1917H77.4494C77.9336 19.2897 79.0518 19.9686 80.2494 19.8917ZM80.8594 15.1817C80.8594 13.7217 80.1894 12.7917 79.1394 12.7917C78.0894 12.7917 77.4194 13.7317 77.4094 15.1817C77.3994 16.6317 78.0894 17.5617 79.1394 17.5617C80.1894 17.5617 80.8594 16.6517 80.8594 15.2017V15.1817ZM93.0794 13.4517C93.0094 11.5617 91.4994 10.3817 89.0094 10.3817V10.4017C86.5294 10.4017 84.9194 11.5717 84.8994 13.3717C84.8994 14.7717 85.8394 15.7217 87.6294 16.0917L89.3594 16.4617C90.0794 16.6117 90.3594 16.7117 90.3594 17.1917C90.3594 17.6717 89.9594 17.9617 89.0794 17.9617C88.1994 17.9617 87.6594 17.5617 87.5694 16.8817H84.6794C84.8094 18.7517 86.4794 19.9717 89.0294 19.9717C91.5794 19.9717 93.3094 18.7517 93.3094 16.8517C93.3094 15.4617 92.5294 14.7217 90.6994 14.3317L88.7794 13.9417C88.1094 13.8017 87.7794 13.6517 87.7794 13.1817C87.7794 12.7117 88.1494 12.3917 88.9794 12.3917C89.8094 12.3917 90.3494 12.8017 90.3494 13.4517H93.0794ZM103.319 19.7517H100.429V18.0417H100.369C100.042 19.2246 98.9348 20.0196 97.7094 19.9517C96.7872 20.0041 95.8875 19.6542 95.2431 18.9925C94.5986 18.3308 94.2726 17.4222 94.3494 16.5017V10.5717H97.3494V15.8117C97.3494 16.9017 97.9094 17.4817 98.8394 17.4817C99.2806 17.4826 99.7007 17.293 99.9919 16.9616C100.283 16.6301 100.417 16.1891 100.359 15.7517V10.5717H103.359L103.319 19.7517ZM107.669 10.5717H104.769L104.719 19.7717H107.719V14.3617C107.674 13.9812 107.793 13.5994 108.047 13.3127C108.301 13.026 108.666 12.8618 109.049 12.8617C109.869 12.8617 110.319 13.3617 110.319 14.2817V19.7717H113.169V14.3417C113.12 13.9659 113.236 13.5872 113.487 13.3034C113.739 13.0196 114.1 12.8585 114.479 12.8617C115.319 12.8617 115.769 13.3217 115.769 14.3217V19.7717H118.769V13.5217C118.829 12.6983 118.537 11.8882 117.965 11.2931C117.393 10.698 116.594 10.374 115.769 10.4017C114.483 10.3464 113.323 11.1694 112.949 12.4017H112.889C112.69 11.1725 111.581 10.3023 110.339 10.4017C109.129 10.3793 108.057 11.1766 107.729 12.3417H107.669V10.5717Z" fill="#696871"/>
<path fill-rule="evenodd" clip-rule="evenodd" d="M24.0094 4.97168C24.8269 5.94361 25.5005 7.02804 26.0094 8.19168C26.7507 9.88829 27.132 11.7202 27.1294 13.5717C27.1239 21.0451 21.0727 27.1051 13.5994 27.1217C11.8605 27.1207 10.1384 26.7811 8.52939 26.1217C7.38174 25.6657 6.30439 25.0496 5.32939 24.2917C1.18237 21.1312 -0.77959 15.8691 0.286103 10.7651C1.35179 5.66115 5.25548 1.62372 10.3207 0.386755C15.3858 -0.850207 20.7111 0.933438 24.0094 4.97168ZM18.1094 3.76168C16.6936 3.10281 15.1509 2.76151 13.5894 2.76168L13.5994 2.74168C9.89642 2.73891 6.45021 4.63345 4.46836 7.76142C2.4865 10.8894 2.24534 14.8146 3.82939 18.1617C4.28108 17.6871 4.55943 17.0741 4.61939 16.4217C4.9831 13.9091 6.9568 11.9354 9.46939 11.5717C10.887 11.4431 12.0191 10.3361 12.1794 8.92168C12.5431 6.40909 14.5168 4.43539 17.0294 4.07168C17.4012 4.01503 17.7642 3.91084 18.1094 3.76168ZM5.31939 20.5717C5.35939 20.535 5.39939 20.4994 5.4394 20.4639L5.43946 20.4638C5.51943 20.3927 5.59941 20.3217 5.67939 20.2417C6.56904 19.3791 7.1401 18.2405 7.29939 17.0117C7.36397 16.3209 7.67239 15.6757 8.16939 15.1917C8.64763 14.6938 9.29136 14.388 9.97939 14.3317C12.492 13.968 14.4657 11.9943 14.8294 9.48168C14.8726 8.75919 15.1827 8.07852 15.6994 7.57168C16.1894 7.08353 16.8393 6.78878 17.5294 6.74168C18.6533 6.58704 19.7015 6.08739 20.5294 5.31168C21.472 6.09375 22.2707 7.03457 22.8894 8.09168C22.8514 8.14303 22.8078 8.18998 22.7594 8.23168C22.2821 8.73387 21.6392 9.04644 20.9494 9.11168C18.4337 9.46912 16.4568 11.446 16.0994 13.9617C15.9541 15.381 14.8293 16.5017 13.4094 16.6417C10.8898 17.0026 8.90579 18.9744 8.52939 21.4917C8.47557 21.9804 8.30773 22.4497 8.03939 22.8617C7.01338 22.2525 6.09447 21.4789 5.31939 20.5717ZM10.5894 24.0117C11.5648 24.2914 12.5747 24.4328 13.5894 24.4317V24.3817C16.9385 24.3687 20.0927 22.8055 22.1315 20.1484C24.1703 17.4914 24.8637 14.04 24.0094 10.8017C23.2502 11.3385 22.3714 11.6817 21.4494 11.8017C20.0334 11.9461 18.9139 13.0657 18.7694 14.4817C18.4046 16.9974 16.4259 18.972 13.9094 19.3317C12.4934 19.4761 11.3739 20.5957 11.2294 22.0117C11.14 22.7118 10.923 23.3897 10.5894 24.0117Z" fill="#696871"/>
</svg>
