<svg width="124" height="29" viewBox="0 0 124 29" fill="none" xmlns="http://www.w3.org/2000/svg">
<path d="M26.52 9.95001C26.88 9.95001 27 10.08 27 10.43V18.35H31.07C31.42 18.35 31.55 18.48 31.55 18.83V19.53C31.55 19.88 31.42 20.01 31.07 20.01H25.71C25.36 20.01 25.22 19.88 25.22 19.53V10.43C25.22 10.08 25.36 9.95001 25.71 9.95001H26.52Z" fill="#696871"/>
<path fill-rule="evenodd" clip-rule="evenodd" d="M39.1 9.73999C36.56 9.73999 35.1 11.13 35.1 13.44V16.52C35.1 18.83 36.57 20.22 39.1 20.22C41.63 20.22 43.1 18.83 43.1 16.52V13.44C43.1 11.13 41.64 9.73999 39.1 9.73999ZM39.15 11.44C40.61 11.44 41.42 12.14 41.42 13.44V16.54C41.42 17.82 40.61 18.54 39.15 18.54C37.69 18.54 36.89 17.85 36.89 16.54V13.44C36.89 12.15 37.69 11.44 39.15 11.44Z" fill="#696871"/>
<path d="M55.01 14.5C55.4 14.5 55.49 14.63 55.49 14.98V16.88C55.5114 17.7864 55.1218 18.6539 54.43 19.24C53.5817 19.9155 52.5121 20.2507 51.43 20.18C48.84 20.18 47.43 18.79 47.43 16.48V13.38C47.43 11.1 48.89 9.70001 51.43 9.70001C53.43 9.70001 54.73 10.49 55.28 12.07C55.3424 12.1904 55.3443 12.3331 55.2853 12.4552C55.2262 12.5772 55.1131 12.6642 54.98 12.69L54.2 12.96C53.86 13.08 53.72 13.01 53.6 12.66C53.2592 11.7813 52.3655 11.2459 51.43 11.36C49.96 11.36 49.16 12.07 49.16 13.36V16.54C49.16 17.85 49.97 18.54 51.43 18.54C52.89 18.54 53.79 17.87 53.79 16.89V16.15H51.62C51.26 16.15 51.13 16.01 51.13 15.66V14.98C51.13 14.63 51.26 14.5 51.62 14.5H55.01Z" fill="#696871"/>
<path fill-rule="evenodd" clip-rule="evenodd" d="M63.62 9.73999C61.08 9.73999 59.62 11.13 59.62 13.44V16.52C59.62 18.83 61.09 20.22 63.62 20.22C66.15 20.22 67.62 18.83 67.62 16.52V13.44C67.62 11.13 66.16 9.73999 63.62 9.73999ZM63.67 11.44C65.12 11.44 65.93 12.14 65.93 13.44V16.54C65.93 17.82 65.13 18.54 63.67 18.54C62.21 18.54 61.4 17.85 61.4 16.54V13.44C61.4 12.15 62.22 11.44 63.67 11.44Z" fill="#696871"/>
<path d="M72.33 10.24C72.33 10.02 72.4 9.95001 72.62 9.95001H73.08C73.3 9.95001 73.35 10.02 73.35 10.24V19.72C73.35 19.94 73.35 20.01 73.08 20.01H72.62C72.4 20.01 72.33 19.94 72.33 19.72V10.24Z" fill="#696871"/>
<path fill-rule="evenodd" clip-rule="evenodd" d="M85.6 13.09C85.6 11.3558 84.1942 9.95001 82.46 9.95001H78.73C78.52 9.95001 78.44 10.02 78.44 10.24V19.72C78.44 19.94 78.52 20.01 78.73 20.01H79.2C79.41 20.01 79.46 19.94 79.46 19.72V16.23H82.46C84.1942 16.23 85.6 14.8242 85.6 13.09ZM84.2579 14.15C83.8685 14.8245 83.1488 15.24 82.37 15.24H79.37V10.88H82.37C83.1488 10.88 83.8685 11.2955 84.2579 11.97C84.6474 12.6445 84.6474 13.4755 84.2579 14.15Z" fill="#696871"/>
<path d="M93.41 9.75C94.9955 9.57503 96.5078 10.4613 97.13 11.93C97.21 12.09 97.13 12.22 96.97 12.3L96.53 12.5C96.35 12.57 96.28 12.56 96.17 12.37C95.7051 11.2808 94.5889 10.6175 93.41 10.73C91.72 10.73 90.8 11.4 90.8 12.6C90.7797 13.3583 91.3217 14.0155 92.07 14.14C92.6079 14.3154 93.1655 14.4229 93.73 14.46C94.4134 14.4964 95.0874 14.6346 95.73 14.87C96.7454 15.1913 97.3964 16.1804 97.29 17.24C97.29 19.11 95.93 20.24 93.43 20.24C91.7403 20.4333 90.1449 19.421 89.6 17.81C89.5643 17.7378 89.5626 17.6535 89.5955 17.58C89.6284 17.5065 89.6924 17.4515 89.77 17.43L90.21 17.27C90.2801 17.2414 90.359 17.2435 90.4274 17.2758C90.4959 17.3081 90.5476 17.3677 90.57 17.44C91.0291 18.5993 92.1862 19.3276 93.43 19.24C95.32 19.24 96.25 18.58 96.25 17.24C96.2864 16.5126 95.7915 15.8655 95.08 15.71C94.5626 15.5557 94.029 15.4617 93.49 15.43L92.41 15.29C92.072 15.2183 91.7382 15.1281 91.41 15.02C91.0859 14.9221 90.7837 14.7625 90.52 14.55C89.983 14.0637 89.6899 13.3639 89.72 12.64C89.79 10.89 91.1 9.75 93.41 9.75Z" fill="#696871"/>
<path d="M102.68 16.59C102.768 18.058 103.984 19.2034 105.455 19.2034C106.926 19.2034 108.142 18.058 108.23 16.59V10.24C108.23 10.02 108.3 9.95001 108.52 9.95001H108.98C109.2 9.95001 109.27 10.02 109.27 10.24V16.58C109.27 18.85 107.93 20.22 105.46 20.22C102.99 20.22 101.65 18.85 101.65 16.58V10.24C101.65 10.02 101.72 9.95001 101.93 9.95001H102.4C102.61 9.95001 102.68 10.02 102.68 10.24V16.59Z" fill="#696871"/>
<path d="M123.07 9.94998C123.29 9.94998 123.36 10.02 123.36 10.24V19.72C123.36 19.94 123.29 20.01 123.07 20.01H122.65C122.44 20.01 122.37 19.94 122.37 19.72V13.95C122.37 13.1104 122.427 12.2718 122.54 11.44H122.48C122.168 12.2007 121.803 12.9391 121.39 13.65L119.24 17.44C119.186 17.5746 119.055 17.6621 118.91 17.66H118.63C118.483 17.6607 118.35 17.5743 118.29 17.44L116.11 13.61C115.723 12.9092 115.389 12.1805 115.11 11.43H115.05C115.152 12.2695 115.206 13.1143 115.21 13.96V19.72C115.21 19.94 115.14 20.01 114.92 20.01H114.53C114.31 20.01 114.24 19.94 114.24 19.72V10.24C114.24 10.02 114.31 9.94998 114.53 9.94998H114.89C115.059 9.93427 115.219 10.0264 115.29 10.18L118.79 16.4L122.27 10.24C122.38 10.03 122.44 9.99998 122.66 9.99998L123.07 9.94998Z" fill="#696871"/>
<path fill-rule="evenodd" clip-rule="evenodd" d="M2.1 0.93V21.24C2.1 21.4893 2.00096 21.7284 1.82468 21.9047C1.6484 22.081 1.4093 22.18 1.16 22.18H0.94C0.420852 22.18 0 21.7591 0 21.24V0.93C0.00548157 0.414762 0.424733 -2.91566e-05 0.94 1.53718e-09H1.16C1.67527 -2.91566e-05 2.09452 0.414762 2.1 0.93ZM13.6303 13.8046C13.8288 13.6156 14.0962 13.5163 14.37 13.53L14.32 13.55C14.611 13.5203 14.9004 13.6195 15.112 13.8215C15.3236 14.0234 15.4361 14.3079 15.42 14.6V20.1C15.42 20.6799 14.9499 21.15 14.37 21.15C13.7901 21.15 13.32 20.6799 13.32 20.1V14.53C13.3197 14.2559 13.4318 13.9937 13.6303 13.8046ZM16.63 16.7C16.63 16.1477 17.0777 15.7 17.63 15.7C17.9194 15.6734 18.206 15.774 18.4152 15.9756C18.6245 16.1772 18.7357 16.4599 18.72 16.75V17.96C18.72 18.5371 18.2521 19.005 17.675 19.005C17.0979 19.005 16.63 18.5371 16.63 17.96V16.7ZM8.73 25.02V17.79C8.41729 18.0277 8.03264 18.1512 7.64 18.14C7.27983 18.1311 6.93096 18.0125 6.64 17.8V25.02C6.64 25.5971 7.10786 26.065 7.685 26.065C8.26214 26.065 8.73 25.5971 8.73 25.02ZM4.37 20.53C4.01017 20.5192 3.66183 20.4008 3.37 20.19V27.44C3.37 28.0199 3.8401 28.49 4.42 28.49C4.9999 28.49 5.47 28.0199 5.47 27.44V20.24C5.14345 20.4511 4.75816 20.5526 4.37 20.53ZM11.05 15.67C10.6734 15.6674 10.3067 15.5487 10 15.33V22.6C10 23.1799 10.4701 23.65 11.05 23.65C11.6299 23.65 12.1 23.1799 12.1 22.6V15.34C11.7827 15.5763 11.3955 15.6995 11 15.69L11.05 15.67ZM4.48 19.76H4.26C3.74085 19.76 3.32 19.3391 3.32 18.82V3.35C3.32548 2.83476 3.74473 2.41997 4.26 2.42H4.48C4.99527 2.41997 5.41452 2.83476 5.42 3.35V18.84C5.42 19.3591 4.99915 19.78 4.48 19.78V19.76ZM7.56 17.38H7.79C8.30363 17.38 8.72 16.9636 8.72 16.45V5.75C8.72003 5.23473 8.30524 4.81548 7.79 4.81H7.56C7.31161 4.80999 7.07353 4.90934 6.89883 5.08592C6.72413 5.26249 6.62733 5.50162 6.63 5.75V16.45C6.63 16.9636 7.04638 17.38 7.56 17.38ZM11.1 14.93H10.89C10.3747 14.93 9.95548 14.5152 9.95 14V8.24C9.9334 7.98047 10.0251 7.72567 10.2032 7.53618C10.3813 7.3467 10.6299 7.23947 10.89 7.24H11.11C11.6291 7.24 12.05 7.66085 12.05 8.18V13.98C12.0527 14.231 11.9548 14.4727 11.7782 14.6512C11.6017 14.8296 11.361 14.93 11.11 14.93H11.1ZM14.2 12.78H14.42H14.43C14.9452 12.7745 15.36 12.3553 15.36 11.84V10.35C15.3545 9.83476 14.9353 9.41997 14.42 9.42H14.2C13.6847 9.41997 13.2655 9.83476 13.26 10.35V11.84C13.26 12.3591 13.6809 12.78 14.2 12.78Z" fill="#696871"/>
</svg>
